<?xml version="1.0" standalone="no"?>
<!DOCTYPE svg PUBLIC "-//W3C//DTD SVG 20010904//EN"
 "http://www.w3.org/TR/2001/REC-SVG-20010904/DTD/svg10.dtd">
<svg version="1.0" xmlns="http://www.w3.org/2000/svg"
 width="784.000000pt" height="784.000000pt" viewBox="0 0 784.000000 784.000000"
 preserveAspectRatio="xMidYMid meet">
<metadata>
Created by potrace 1.14, written by Peter Selinger 2001-2017
</metadata>
<g transform="translate(0.000000,784.000000) scale(0.100000,-0.100000)"
fill="#000000" stroke="none">
<path d="M3440 7124 c-19 -2 -84 -9 -145 -15 -1055 -106 -2021 -773 -2506
-1731 -238 -472 -349 -934 -349 -1458 0 -209 10 -333 42 -525 12 -71 22 -140
22 -153 1 -20 -25 -37 -177 -123 -98 -54 -211 -120 -250 -145 l-71 -46 39 -16
c37 -15 40 -15 89 12 115 62 382 196 392 196 6 0 23 -44 39 -97 111 -381 331
-804 579 -1112 42 -52 124 -146 182 -208 105 -113 106 -114 88 -134 -10 -12
-123 -118 -250 -236 -128 -118 -235 -225 -238 -236 -8 -29 -8 -82 0 -90 3 -3
90 69 193 161 265 236 388 342 396 342 3 0 55 -39 113 -86 485 -389 1035 -618
1672 -696 158 -19 574 -16 735 6 181 25 352 60 508 106 1121 328 1976 1240
2231 2383 58 256 70 377 70 697 0 251 -4 316 -22 437 -39 263 -101 501 -187
718 l-43 110 72 64 c386 350 711 729 916 1071 71 117 196 373 229 465 l21 60
-32 -40 c-272 -332 -605 -641 -980 -909 -123 -87 -405 -272 -432 -282 -7 -3
-43 41 -81 98 -520 771 -1328 1267 -2265 1393 -108 15 -524 28 -600 19z m235
-259 c0 -23 -34 -33 -45 -14 -13 20 1 40 24 37 13 -2 21 -10 21 -23z m648
-295 c12 -8 33 -18 47 -21 l25 -7 -26 -1 c-28 -1 -64 -34 -72 -66 -4 -17 -5
-16 -6 5 -1 16 -13 33 -34 48 -17 12 -26 22 -19 22 19 0 52 38 53 63 2 21 2
20 6 -3 3 -13 15 -31 26 -40z m-843 -35 c20 -25 8 -50 -25 -50 -21 0 -31 5
-33 18 -4 21 14 47 33 47 7 0 18 -7 25 -15z m374 -57 c15 -24 -13 -53 -43 -43
-21 6 -29 43 -14 59 12 12 45 2 57 -16z m-794 -228 c0 -24 -26 -38 -42 -22
-16 16 -2 42 22 42 13 0 20 -7 20 -20z m509 7 c8 -10 7 -19 -4 -33 -13 -18
-15 -18 -31 -2 -14 14 -15 20 -4 32 15 19 24 20 39 3z m-436 -49 c7 -21 -4
-38 -23 -38 -23 0 -34 16 -26 35 7 18 43 20 49 3z m76 -52 c9 -11 8 -18 -5
-31 -15 -15 -18 -15 -32 -1 -13 12 -13 18 -2 30 15 20 24 20 39 2z m641 -66
c0 -23 -13 -32 -34 -24 -19 7 -21 25 -5 41 16 16 39 5 39 -17z m-757 -42 c7
-21 -4 -38 -23 -38 -23 0 -34 16 -26 35 7 18 43 20 49 3z m-368 -27 c232 -48
536 -200 822 -412 332 -244 723 -634 1012 -1007 42 -54 88 -114 103 -132 l26
-35 26 60 c14 33 32 71 39 85 l13 25 244 0 c211 0 245 -2 245 -15 0 -11 -15
-17 -51 -21 -59 -7 -89 -22 -104 -49 -6 -12 -10 -154 -10 -385 l0 -365 41 -82
c136 -270 238 -568 285 -828 24 -129 24 -370 1 -463 -65 -263 -237 -373 -527
-339 -203 24 -529 126 -498 157 2 3 38 -9 79 -26 41 -16 126 -44 189 -61 101
-27 133 -31 255 -32 190 -1 238 13 321 97 98 100 141 215 151 398 10 188 -35
426 -128 681 l-43 118 -295 2 c-255 3 -296 5 -296 18 0 11 16 17 60 21 47 6
64 12 82 33 22 26 23 33 23 224 l0 197 61 39 c65 42 65 42 24 106 -26 40 -27
41 -50 26 -13 -9 -27 -16 -30 -16 -3 0 -5 29 -5 66 0 60 -3 70 -42 127 -23 34
-43 57 -45 51 -2 -6 -41 -100 -87 -210 -78 -186 -86 -201 -125 -228 -23 -15
-44 -27 -46 -25 -2 2 40 108 92 234 52 127 101 247 108 267 l14 38 -60 81
c-645 869 -1457 1495 -1994 1535 -188 14 -347 -60 -429 -199 -109 -187 -105
-513 10 -893 46 -154 94 -275 109 -281 8 -2 13 -17 13 -33 -1 -27 160 -366
216 -455 l25 -40 1 212 0 213 -28 31 c-24 27 -37 33 -85 37 -39 3 -57 9 -57
18 0 12 83 14 505 14 l505 0 2 -135 c1 -74 2 -154 3 -177 0 -32 -4 -44 -17
-46 -13 -2 -20 8 -28 40 -33 128 -64 174 -147 214 -55 27 -66 29 -210 32
l-153 4 0 -247 0 -248 52 7 c59 8 94 24 124 58 39 42 53 78 79 201 3 15 12 27
20 27 13 0 15 -44 15 -320 0 -271 -2 -320 -14 -320 -15 0 -20 12 -31 73 -21
129 -101 207 -212 207 l-33 0 0 -173 0 -173 61 -82 61 -82 67 0 c83 0 183 24
237 55 73 43 141 137 178 248 3 9 13 17 22 17 13 0 15 -7 11 -37 -3 -21 -16
-109 -28 -195 l-22 -158 -204 0 -203 0 135 -169 c74 -92 135 -171 135 -174 0
-3 -16 -15 -36 -28 -33 -20 -37 -21 -46 -6 -5 9 -34 47 -64 84 -30 38 -96 119
-146 181 l-91 112 -263 0 c-220 0 -264 2 -264 14 0 9 17 16 53 21 115 16 117
22 117 360 0 158 -4 265 -9 265 -5 0 -21 -4 -34 -9 -24 -10 -28 -5 -125 187
-54 108 -112 227 -127 265 -27 65 -36 73 -70 61 -43 -17 -45 -37 -45 -553 0
-286 4 -500 10 -515 12 -32 43 -49 105 -56 37 -4 51 -10 53 -22 3 -17 -17 -18
-312 -18 -309 0 -316 0 -316 20 0 17 7 20 50 20 40 0 56 5 81 28 l31 28 5 499
c3 331 2 497 -5 490 -8 -8 -237 -549 -377 -890 -56 -138 -84 -195 -93 -195 -8
0 -92 171 -92 186 0 4 -87 207 -192 453 l-193 446 -3 -468 c-2 -508 -2 -517
53 -553 14 -9 48 -19 76 -22 40 -4 49 -8 49 -23 0 -18 -11 -19 -211 -19 -195
0 -210 1 -207 18 2 11 16 19 43 23 54 7 82 24 105 62 19 31 20 54 20 514 0
283 -4 492 -10 507 -12 33 -59 56 -115 56 -34 0 -45 4 -45 15 0 13 32 15 251
13 l251 -3 165 -387 c91 -214 168 -388 172 -388 3 0 78 176 165 390 l159 390
196 2 c124 2 195 7 194 13 -2 6 -23 69 -47 140 -93 273 -129 462 -129 680 1
120 5 166 22 228 52 195 163 315 331 359 88 23 232 22 345 -1z m1603 -180 c8
-4 12 -19 10 -32 -4 -29 -45 -34 -61 -7 -19 30 19 60 51 39z m-1514 -267 c12
-12 32 -24 46 -27 l25 -4 -26 -2 c-25 -1 -61 -32 -72 -61 -4 -11 -6 -10 -6 4
-1 28 -30 56 -60 57 -25 2 -25 2 -3 6 33 6 62 38 63 71 2 26 2 26 6 2 3 -14
15 -34 27 -46z m-336 28 c3 -18 -1 -22 -22 -22 -19 0 -26 5 -26 18 0 39 43 43
48 4z m116 -128 c8 -21 -1 -34 -24 -34 -10 0 -21 4 -24 9 -10 16 5 41 24 41
10 0 21 -7 24 -16z m3598 -873 c118 -31 193 -73 278 -160 123 -125 173 -253
173 -441 0 -120 -18 -201 -65 -294 -113 -225 -307 -339 -573 -339 -190 0 -327
49 -442 157 -129 120 -191 258 -200 446 -6 119 15 228 62 323 75 148 211 262
370 308 88 26 297 25 397 0z m-2019 -178 c203 -478 257 -605 257 -611 0 -7
-222 -152 -232 -152 -3 0 -29 55 -58 123 -102 238 -292 672 -296 676 -2 2 -4
-210 -4 -472 l0 -475 25 -31 26 -30 -45 -30 c-43 -30 -49 -31 -145 -31 -92 0
-101 2 -101 19 0 14 10 19 45 23 25 3 56 13 71 23 54 35 55 43 52 570 l-3 485
-27 26 c-21 21 -39 28 -82 32 -39 3 -56 9 -56 18 0 12 44 14 249 14 l249 0 75
-177z m254 -795 c-39 -101 -101 -238 -108 -238 -7 0 -69 122 -69 137 0 5 164
112 174 112 4 1 6 -5 3 -11z m-1909 -391 c4 -20 -25 -34 -40 -19 -15 15 -1 44
19 40 10 -2 19 -11 21 -21z m3227 -192 c0 -30 -39 -27 -43 3 -3 20 0 23 20 20
15 -2 23 -10 23 -23z m450 -126 c24 -5 25 -7 8 -8 -28 -1 -63 -34 -63 -58 -1
-13 -5 -10 -16 9 -8 15 -27 34 -42 42 -15 9 -21 15 -13 16 22 0 51 31 51 53 0
16 5 13 23 -14 14 -21 34 -36 52 -40z m-2707 -52 c48 -41 126 -104 175 -141
101 -79 117 -98 117 -145 0 -48 -24 -71 -74 -71 -59 0 -128 44 -216 136 -71
75 -180 211 -180 226 0 6 79 66 88 68 2 0 43 -33 90 -73z m2315 32 c15 -24 1
-49 -27 -49 -29 0 -44 33 -25 56 15 18 38 15 52 -7z m-475 -8 c8 -4 12 -19 10
-32 -4 -29 -45 -34 -61 -7 -19 30 19 60 51 39z m937 -200 c0 -34 -30 -51 -51
-29 -25 24 -10 60 24 56 21 -2 27 -8 27 -27z m-1181 10 c10 -16 -5 -41 -24
-41 -19 0 -34 25 -24 41 3 5 14 9 24 9 10 0 21 -4 24 -9z m249 -52 c15 -24 1
-49 -27 -49 -29 0 -44 33 -25 56 15 18 38 15 52 -7z m751 -12 c8 -13 7 -20 -4
-27 -8 -5 -19 -10 -23 -10 -12 0 -20 28 -13 46 7 19 25 15 40 -9z m-3556 4 c8
-4 12 -19 10 -32 -4 -29 -45 -34 -61 -7 -19 30 19 60 51 39z m-847 -167 c17
-21 0 -49 -32 -49 -24 0 -36 23 -25 51 7 19 40 18 57 -2z m-361 -50 c11 -12
10 -18 -3 -32 -16 -15 -18 -15 -34 0 -13 14 -14 20 -3 32 7 9 16 16 20 16 4 0
13 -7 20 -16z m4478 -58 c5 -24 -10 -38 -31 -30 -20 7 -22 25 -5 42 16 16 32
10 36 -12z m-720 -44 c3 -18 -1 -22 -22 -22 -19 0 -26 5 -26 18 0 39 43 43 48
4z m-2893 -27 c0 -13 -8 -21 -22 -23 -17 -3 -23 2 -23 16 0 10 3 22 7 26 13
13 38 1 38 -19z m-557 -21 c2 -12 -4 -24 -12 -27 -19 -7 -40 18 -32 39 8 22
40 13 44 -12z m4247 -41 c11 -13 29 -23 40 -24 20 -1 20 -1 0 -7 -37 -12 -65
-37 -66 -57 -1 -20 -1 -20 -6 0 -8 31 -34 55 -62 56 -26 2 -26 2 -2 6 31 6 60
40 62 73 l1 25 7 -25 c3 -14 15 -35 26 -47z m170 -28 c0 -13 -8 -21 -22 -23
-17 -3 -23 2 -23 16 0 10 3 22 7 26 13 13 38 1 38 -19z m-4268 -21 c8 -22 -10
-49 -32 -49 -10 0 -22 7 -28 16 -15 24 -1 49 28 49 15 0 28 -7 32 -16z m977
-9 c12 -32 -17 -61 -49 -49 -15 6 -21 45 -8 57 12 13 51 7 57 -8z m1381 -20
c0 -13 -8 -21 -22 -23 -17 -3 -23 2 -23 16 0 10 3 22 7 26 13 13 38 1 38 -19z
m-630 -230 c0 -23 -34 -33 -45 -14 -13 20 1 40 24 37 13 -2 21 -10 21 -23z
m-1087 -13 c3 -16 -2 -22 -17 -22 -24 0 -35 15 -27 36 9 23 40 13 44 -14z
m367 -67 c0 -23 -34 -33 -45 -14 -13 20 1 40 24 37 13 -2 21 -10 21 -23z
m2409 -211 c21 -8 21 -40 0 -48 -21 -8 -34 1 -34 23 0 28 9 34 34 25z m-2681
-71 c11 -13 30 -23 41 -24 21 -1 21 -1 1 -7 -39 -13 -65 -37 -66 -62 -2 -24
-2 -25 -6 -2 -6 31 -38 62 -65 63 -22 2 -22 2 1 6 29 6 60 40 62 68 l1 20 5
-20 c3 -11 14 -30 26 -42z"/>
<path d="M4761 4418 l-23 -57 23 -38 24 -38 3 48 c2 26 2 68 0 95 l-3 47 -24
-57z"/>
<path d="M5091 3572 c-1 -79 0 -85 28 -113 30 -29 72 -39 70 -16 0 6 -22 57
-49 112 l-48 100 -1 -83z"/>
<path d="M5911 4546 c-44 -16 -106 -69 -136 -117 -111 -175 -123 -603 -24
-819 58 -126 128 -174 254 -174 64 -1 88 4 121 21 77 41 133 126 170 258 25
91 31 391 10 515 -38 220 -138 331 -295 329 -37 0 -81 -6 -100 -13z"/>
</g>
</svg>
