<svg width="32" height="26" viewBox="0 0 32 26" fill="none" xmlns="http://www.w3.org/2000/svg">
<g clip-path="url(#clip0_56_21413)">
<path d="M14.9951 25.848C21.9668 25.8176 27.594 20.1965 27.5639 13.293C27.5338 6.38955 21.8577 0.81782 14.886 0.84824C7.91436 0.87866 2.28711 6.49971 2.31724 13.4032C2.34736 20.3067 8.02344 25.8784 14.9951 25.848Z" fill="#5C5C5C"/>
<path d="M14.151 3.39244C14.2292 3.3921 14.2923 3.32908 14.2919 3.25169C14.2916 3.1743 14.228 3.11183 14.1498 3.11218C14.0717 3.11252 14.0086 3.17553 14.0089 3.25293C14.0092 3.33032 14.0729 3.39278 14.151 3.39244Z" fill="white"/>
<path d="M15.6051 3.57298C15.6833 3.57264 15.7464 3.50963 15.746 3.43223C15.7457 3.35484 15.6821 3.29238 15.6039 3.29272C15.5258 3.29306 15.4627 3.35607 15.463 3.43347C15.4634 3.51086 15.527 3.57332 15.6051 3.57298Z" fill="white"/>
<path d="M17.5216 6.10582C17.5998 6.10548 17.6629 6.04246 17.6626 5.96507C17.6622 5.88768 17.5986 5.82521 17.5204 5.82555C17.4423 5.8259 17.3792 5.88891 17.3795 5.9663C17.3799 6.0437 17.4435 6.10616 17.5216 6.10582Z" fill="white"/>
<path d="M7.12565 19.2305C7.20381 19.2301 7.26689 19.1671 7.26656 19.0897C7.26622 19.0123 7.20259 18.9498 7.12443 18.9502C7.04627 18.9505 6.98318 19.0135 6.98352 19.0909C6.98386 19.1683 7.04749 19.2308 7.12565 19.2305Z" fill="white"/>
<path d="M7.4987 20.35C7.57686 20.3496 7.63994 20.2866 7.6396 20.2092C7.63927 20.1318 7.57563 20.0694 7.49747 20.0697C7.41932 20.07 7.35623 20.1331 7.35657 20.2104C7.35691 20.2878 7.42054 20.3503 7.4987 20.35Z" fill="white"/>
<path d="M5.73968 19.3705C5.79874 19.3702 5.8464 19.3226 5.84615 19.2641C5.84589 19.2057 5.79781 19.1585 5.73876 19.1587C5.67971 19.159 5.63204 19.2066 5.6323 19.2651C5.63255 19.3235 5.68063 19.3707 5.73968 19.3705Z" fill="white"/>
<path d="M11.5038 21.547C11.5629 21.5467 11.6106 21.4991 11.6103 21.4406C11.6101 21.3822 11.562 21.335 11.5029 21.3352C11.4439 21.3355 11.3962 21.3831 11.3965 21.4416C11.3967 21.5 11.4448 21.5472 11.5038 21.547Z" fill="white"/>
<path d="M20.5214 19.6516C20.5805 19.6513 20.6281 19.6037 20.6279 19.5453C20.6276 19.4868 20.5796 19.4396 20.5205 19.4398C20.4614 19.4401 20.4138 19.4877 20.414 19.5462C20.4143 19.6047 20.4624 19.6519 20.5214 19.6516Z" fill="white"/>
<path d="M23.1323 16.819C23.1913 16.8187 23.239 16.7711 23.2387 16.7126C23.2385 16.6541 23.1904 16.6069 23.1313 16.6072C23.0723 16.6075 23.0246 16.6551 23.0249 16.7135C23.0251 16.772 23.0732 16.8192 23.1323 16.819Z" fill="white"/>
<path d="M10.2324 6.92235C10.2914 6.92209 10.3391 6.87448 10.3388 6.816C10.3386 6.75753 10.2905 6.71034 10.2314 6.71059C10.1724 6.71085 10.1247 6.75846 10.125 6.81694C10.1252 6.87541 10.1733 6.92261 10.2324 6.92235Z" fill="white"/>
<path d="M13.1108 4.8109C13.1698 4.81064 13.2175 4.76303 13.2172 4.70455C13.217 4.64608 13.1689 4.59889 13.1099 4.59914C13.0508 4.5994 13.0031 4.64701 13.0034 4.70549C13.0036 4.76396 13.0517 4.81116 13.1108 4.8109Z" fill="white"/>
<path d="M12.7949 4.6068C12.8539 4.60654 12.9016 4.55893 12.9013 4.50045C12.9011 4.44198 12.853 4.39478 12.7939 4.39504C12.7349 4.3953 12.6872 4.44291 12.6875 4.50139C12.6877 4.55986 12.7358 4.60706 12.7949 4.6068Z" fill="white"/>
<path d="M12.5112 4.40245C12.5702 4.40219 12.6179 4.35458 12.6176 4.29611C12.6174 4.23763 12.5693 4.19044 12.5102 4.1907C12.4512 4.19095 12.4035 4.23857 12.4038 4.29704C12.404 4.35552 12.4521 4.40271 12.5112 4.40245Z" fill="white"/>
<path d="M10.6879 7.46227C10.747 7.46201 10.7946 7.4144 10.7944 7.35592C10.7941 7.29745 10.7461 7.25025 10.687 7.25051C10.6279 7.25077 10.5803 7.29838 10.5805 7.35686C10.5808 7.41533 10.6289 7.46252 10.6879 7.46227Z" fill="white"/>
<path d="M14.916 1.98155C14.975 1.9813 15.0227 1.93368 15.0224 1.87521C15.0222 1.81673 14.9741 1.76954 14.915 1.7698C14.856 1.77005 14.8083 1.81767 14.8086 1.87614C14.8088 1.93462 14.8569 1.98181 14.916 1.98155Z" fill="white"/>
<path d="M15.6269 5.00536C15.6859 5.0051 15.7336 4.95749 15.7334 4.89901C15.7331 4.84054 15.685 4.79334 15.626 4.7936C15.5669 4.79386 15.5192 4.84147 15.5195 4.89995C15.5198 4.95842 15.5678 5.00562 15.6269 5.00536Z" fill="white"/>
<path d="M14.5239 4.41857C14.5829 4.41831 14.6306 4.3707 14.6303 4.31222C14.6301 4.25375 14.582 4.20655 14.5229 4.20681C14.4639 4.20707 14.4162 4.25468 14.4165 4.31315C14.4167 4.37163 14.4648 4.41882 14.5239 4.41857Z" fill="white"/>
<path d="M12.6406 5.23021C12.6996 5.22995 12.7473 5.18234 12.747 5.12387C12.7468 5.06539 12.6987 5.0182 12.6396 5.01845C12.5806 5.01871 12.5329 5.06632 12.5332 5.1248C12.5334 5.18327 12.5815 5.23047 12.6406 5.23021Z" fill="white"/>
<path d="M21.037 22.421C21.0961 22.4207 21.1438 22.3731 21.1435 22.3147C21.1433 22.2562 21.0952 22.209 21.0361 22.2093C20.9771 22.2095 20.9294 22.2571 20.9297 22.3156C20.9299 22.3741 20.978 22.4213 21.037 22.421Z" fill="white"/>
<path d="M6.94965 19.9071C7.0087 19.9068 7.05636 19.8592 7.05611 19.8007C7.05585 19.7423 7.00777 19.6951 6.94872 19.6953C6.88967 19.6956 6.842 19.7432 6.84226 19.8017C6.84251 19.8602 6.89059 19.9073 6.94965 19.9071Z" fill="white"/>
<path d="M14.3334 21.2295C14.3925 21.2292 14.4402 21.1816 14.4399 21.1231C14.4396 21.0647 14.3916 21.0175 14.3325 21.0177C14.2735 21.018 14.2258 21.0656 14.226 21.1241C14.2263 21.1825 14.2744 21.2297 14.3334 21.2295Z" fill="white"/>
<path d="M9.14398 19.8133C9.20303 19.8131 9.2507 19.7655 9.25044 19.707C9.25019 19.6485 9.20211 19.6013 9.14306 19.6016C9.084 19.6018 9.03634 19.6495 9.03659 19.7079C9.03685 19.7664 9.08493 19.8136 9.14398 19.8133Z" fill="white"/>
<path d="M10.0688 21.2917C10.1278 21.2915 10.1755 21.2439 10.1752 21.1854C10.175 21.1269 10.1269 21.0797 10.0679 21.08C10.0088 21.0802 9.96114 21.1278 9.9614 21.1863C9.96165 21.2448 10.0097 21.292 10.0688 21.2917Z" fill="white"/>
<path d="M16.8203 20.328C16.8793 20.3277 16.927 20.2801 16.9267 20.2216C16.9265 20.1632 16.8784 20.116 16.8193 20.1162C16.7603 20.1165 16.7126 20.1641 16.7129 20.2226C16.7131 20.2811 16.7612 20.3282 16.8203 20.328Z" fill="white"/>
<path d="M20.5341 18.2316C20.5932 18.2313 20.6408 18.1837 20.6406 18.1252C20.6403 18.0667 20.5922 18.0195 20.5332 18.0198C20.4741 18.0201 20.4265 18.0677 20.4267 18.1261C20.427 18.1846 20.4751 18.2318 20.5341 18.2316Z" fill="white"/>
<path d="M23.3642 19.496C23.4232 19.4957 23.4709 19.4481 23.4707 19.3896C23.4704 19.3311 23.4223 19.2839 23.3633 19.2842C23.3042 19.2845 23.2566 19.3321 23.2568 19.3905C23.2571 19.449 23.3051 19.4962 23.3642 19.496Z" fill="white"/>
<path d="M24.329 20.1022C24.3881 20.1019 24.4358 20.0543 24.4355 19.9958C24.4352 19.9373 24.3872 19.8901 24.3281 19.8904C24.2691 19.8907 24.2214 19.9383 24.2217 19.9967C24.2219 20.0552 24.27 20.1024 24.329 20.1022Z" fill="white"/>
<path d="M24.4789 18.4385C24.538 18.4382 24.5857 18.3906 24.5854 18.3321C24.5851 18.2736 24.5371 18.2264 24.478 18.2267C24.419 18.227 24.3713 18.2746 24.3716 18.3331C24.3718 18.3915 24.4199 18.4387 24.4789 18.4385Z" fill="white"/>
<path d="M10.4301 16.1455C10.4892 16.1452 10.5368 16.0976 10.5366 16.0391C10.5363 15.9807 10.4882 15.9335 10.4292 15.9337C10.3701 15.934 10.3225 15.9816 10.3227 16.0401C10.323 16.0986 10.3711 16.1458 10.4301 16.1455Z" fill="white"/>
<path d="M10.4816 18.59C10.5598 18.5896 10.6229 18.5266 10.6225 18.4492C10.6222 18.3718 10.5585 18.3093 10.4804 18.3097C10.4022 18.31 10.3391 18.373 10.3395 18.4504C10.3398 18.5278 10.4034 18.5903 10.4816 18.59Z" fill="white"/>
<path d="M11.3385 20.3613C11.4167 20.361 11.4798 20.298 11.4794 20.2206C11.4791 20.1432 11.4155 20.0807 11.3373 20.081C11.2592 20.0814 11.1961 20.1444 11.1964 20.2218C11.1967 20.2992 11.2604 20.3617 11.3385 20.3613Z" fill="white"/>
<path d="M21.5006 18.4671C21.5788 18.4668 21.6419 18.4038 21.6416 18.3264C21.6412 18.249 21.5776 18.1865 21.4994 18.1869C21.4213 18.1872 21.3582 18.2502 21.3585 18.3276C21.3589 18.405 21.4225 18.4675 21.5006 18.4671Z" fill="white"/>
<path d="M25.1603 18.2456C25.2385 18.2452 25.3016 18.1822 25.3012 18.1048C25.3009 18.0274 25.2373 17.965 25.1591 17.9653C25.0809 17.9657 25.0179 18.0287 25.0182 18.1061C25.0185 18.1835 25.0822 18.2459 25.1603 18.2456Z" fill="white"/>
<path d="M23.3454 17.4874C23.4235 17.4871 23.4866 17.4241 23.4863 17.3467C23.4859 17.2693 23.4223 17.2068 23.3442 17.2071C23.266 17.2075 23.2029 17.2705 23.2032 17.3479C23.2036 17.4253 23.2672 17.4878 23.3454 17.4874Z" fill="white"/>
<path d="M21.4967 17.5702C21.5749 17.5698 21.638 17.5068 21.6376 17.4294C21.6373 17.352 21.5737 17.2896 21.4955 17.2899C21.4174 17.2903 21.3543 17.3533 21.3546 17.4307C21.355 17.5081 21.4186 17.5705 21.4967 17.5702Z" fill="white"/>
<path d="M17.6192 3.15008L17.9713 3.11429L17.619 3.09714C17.6092 3.02867 17.5524 2.97598 17.4832 2.97005L17.4471 2.62454L17.4297 2.9734C17.3669 2.98924 17.3168 3.03929 17.3108 3.10471L16.9524 3.13742L17.3142 3.15452C17.327 3.21364 17.3775 3.26013 17.4373 3.27232L17.4703 3.6303L17.4876 3.2721C17.5536 3.26247 17.6037 3.21243 17.616 3.14698L17.6192 3.15008Z" fill="white"/>
<path d="M11.6988 7.05608L12.0509 7.02029L11.6986 7.00314C11.6888 6.93468 11.632 6.88198 11.5628 6.87606L11.5267 6.53055L11.5093 6.8794C11.4465 6.89525 11.3964 6.94529 11.3904 7.01072L11.032 7.04342L11.3938 7.06053C11.4066 7.11964 11.4571 7.16613 11.5169 7.17833L11.5499 7.53631L11.5672 7.17811C11.6332 7.16848 11.6833 7.11843 11.6956 7.05298L11.6988 7.05608Z" fill="white"/>
<path d="M24.8985 17.2533L25.2506 17.2176L24.8983 17.2004C24.8885 17.1319 24.8317 17.0824 24.7625 17.0733L24.7264 16.7278L24.709 17.0767C24.6462 17.0894 24.5961 17.1426 24.5901 17.208L24.2317 17.2407L24.5935 17.2578C24.6063 17.3169 24.6568 17.3634 24.7166 17.3756L24.7496 17.7336L24.7669 17.3754C24.8329 17.3657 24.883 17.3157 24.8953 17.2502L24.8985 17.2533Z" fill="white"/>
<path d="M10.5782 22.6815L10.9303 22.6457L10.5779 22.6285C10.5682 22.56 10.5114 22.5074 10.4422 22.5014L10.4061 22.1559L10.3887 22.5048C10.3259 22.5175 10.2758 22.5707 10.2698 22.6361L9.91141 22.6688L10.2731 22.6859C10.286 22.745 10.3365 22.7946 10.3963 22.8037L10.4293 23.1617L10.4466 22.8035C10.5126 22.7938 10.5627 22.7438 10.575 22.6783L10.5782 22.6815Z" fill="white"/>
<path d="M23.794 20.0079L24.1461 19.9721L23.7938 19.9549C23.784 19.8865 23.7272 19.8338 23.658 19.8278L23.6219 19.4823L23.6045 19.8312C23.5417 19.8439 23.4916 19.8971 23.4856 19.9625L23.1272 19.9952L23.489 20.0123C23.5018 20.0714 23.5523 20.1179 23.6121 20.1301L23.6451 20.4881L23.6624 20.1299C23.7284 20.1203 23.7785 20.0702 23.7908 20.0048L23.794 20.0079Z" fill="white"/>
<path d="M17.921 10.3392C16.4548 10.9093 15.0261 11.42 13.8201 11.7989C11.3674 12.5695 4.66214 14.6603 0.616643 17.2751L0.956855 17.4045C3.42266 16.011 5.02778 15.5712 6.56978 15.0817C8.24684 14.5512 13.6693 13.2695 16.1256 12.5736C16.9548 12.3396 17.9252 12.0302 18.9551 11.6582C18.7147 11.3292 18.4585 10.9971 18.1929 10.6681C18.1044 10.5564 18.0127 10.4478 17.921 10.3392ZM25.2151 6.98772C23.4992 7.99173 20.7968 9.20869 18.1722 10.2416C18.2354 10.316 18.2986 10.3936 18.3619 10.4712C18.6559 10.8374 18.9343 11.2036 19.1969 11.5731C21.2598 10.8104 23.5228 9.78848 25.3163 8.5568C24.4644 9.36396 21.6401 11.4721 19.9155 12.6505C20.0042 12.7934 20.0929 12.9363 20.1753 13.0792C22.7842 11.3332 24.5397 10.0487 25.5612 9.19102C26.9713 8.00772 30.1864 5.35914 31.3974 1.82243C29.2582 4.54106 26.7208 6.10297 25.212 6.98774L25.2151 6.98772ZM19.7242 12.7791C19.3699 13.0173 19.072 13.2085 18.8649 13.3309C17.6603 14.0275 11.7906 18.0329 10.4549 18.9543C9.11919 19.8757 5.41717 23.3672 4.32717 24.381L4.29122 24.7922C7.80602 21.6378 8.90962 20.8576 10.3076 19.7958C12.0378 18.4803 15.6187 16.045 16.8355 15.2643C17.999 14.518 19.0495 13.8315 19.9903 13.2045C19.9744 13.1797 19.9586 13.1548 19.9428 13.1269C19.8699 13.012 19.7971 12.8971 19.7242 12.7791Z" fill="#ADADAC"/>
<path d="M13.3311 16.4505C13.0528 16.106 12.664 15.6406 12.3731 15.2837C11.9842 14.8027 11.6235 14.3185 11.2944 13.8341C11.1875 13.8595 11.0807 13.888 10.9739 13.9165C11.3729 14.5251 11.8126 15.1336 12.2964 15.7294C12.6474 16.1638 12.9666 16.5143 13.131 16.7316C13.1627 16.7751 13.2291 16.8744 13.3178 17.0017C13.4181 16.9328 13.5216 16.8638 13.625 16.7917C13.5239 16.6832 13.426 16.5715 13.3279 16.4505L13.3311 16.4505ZM15.3706 18.2664C15.1401 18.0526 14.585 17.6969 14.0041 17.1638C13.8786 17.2515 13.7501 17.3393 13.6215 17.427C13.998 17.9455 14.5071 18.5816 14.9042 18.7667C15.5029 19.0444 15.6643 18.5392 15.3706 18.2664ZM18.362 10.4712C15.0451 6.37189 11.0036 4.13178 9.2736 5.50643C7.9291 6.57421 8.49614 9.67653 10.3721 12.9257C10.4694 12.8942 10.5636 12.8595 10.6578 12.8279C8.76652 9.65978 8.24103 6.70987 9.50717 5.7016C11.1024 4.43653 14.9741 6.68672 18.1961 10.665C18.8633 11.4873 19.4487 12.3162 19.946 13.1237C21.8496 16.214 22.4436 19.0141 21.1403 20.1627C20.7424 20.5132 19.5229 20.6587 17.919 19.9525C17.8971 19.9806 17.9321 20.0552 17.9604 20.0738C19.3434 20.619 20.6683 20.8218 21.3327 20.2926C22.9311 19.0213 21.6788 14.5674 18.362 10.4712Z" fill="white"/>
<path d="M6.45423 13.8336L7.73318 10.717L9.67354 10.7086L9.6741 10.8362L9.52 10.8369C9.37848 10.8375 9.26852 10.8629 9.18382 10.91C9.1242 10.9414 9.07727 10.9977 9.04301 11.0725C9.01809 11.1287 9.00614 11.272 9.00717 11.5087L9.02074 14.6196C9.02179 14.8594 9.03504 15.012 9.06045 15.071C9.08587 15.1301 9.13956 15.1828 9.21839 15.2291C9.29721 15.2755 9.40423 15.2968 9.53946 15.2963L9.69355 15.2956L9.69411 15.4233L7.20655 15.4341L7.206 15.3064L7.36009 15.3058C7.50161 15.3051 7.61157 15.2798 7.69626 15.2296C7.75588 15.1982 7.80281 15.1419 7.83705 15.0608C7.86196 15.0046 7.8739 14.8582 7.87287 14.6215L7.85761 11.1244L6.04926 15.4392L5.96435 15.4395L4.09025 11.1751L4.10475 14.4978C4.10577 14.7314 4.11267 14.8715 4.1255 14.9275C4.15745 15.0426 4.22391 15.1388 4.32486 15.21C4.4258 15.2812 4.58635 15.3179 4.80649 15.3169L4.80705 15.4446L3.17488 15.4517L3.17433 15.324L3.22464 15.3238C3.33157 15.3233 3.42899 15.3073 3.52004 15.2727C3.61108 15.2349 3.68006 15.1879 3.72697 15.1285C3.77389 15.0692 3.8081 14.9818 3.83593 14.8727C3.83896 14.8478 3.84159 14.7294 3.84067 14.5177L3.82764 11.5313C3.82659 11.2915 3.81336 11.1421 3.78794 11.083C3.76253 11.024 3.70883 10.9713 3.63002 10.928C3.5512 10.8816 3.44418 10.8603 3.30895 10.8609L3.158 10.8615L3.15744 10.7339L5.10409 10.7254L6.45736 13.8305L6.45423 13.8336Z" fill="white"/>
<path d="M11.7662 10.9704L11.7746 12.8917L11.8689 12.8913C12.1708 12.89 12.3906 12.7956 12.525 12.6051C12.6594 12.4145 12.7462 12.1401 12.7824 11.7725L12.9144 11.7719L12.9252 14.2414L12.7931 14.2419C12.7637 13.9743 12.7029 13.7534 12.6141 13.5825C12.5253 13.4116 12.4179 13.2969 12.2982 13.2382C12.1784 13.1796 12.0053 13.1492 11.7789 13.1502L11.7847 14.4799C11.7858 14.7384 11.7991 14.9002 11.8213 14.9562C11.8436 15.0153 11.8847 15.0618 11.9478 15.0989C12.0077 15.136 12.1084 15.1543 12.2436 15.1537L12.5298 15.1524C12.9764 15.1505 13.3313 15.0461 13.5977 14.8426C13.8641 14.6359 14.0577 14.3267 14.1723 13.9089L14.3012 13.9084L14.0939 15.4103L9.9742 15.4283L9.97364 15.3006L10.1309 15.2999C10.2693 15.2993 10.3792 15.2739 10.4639 15.2237C10.5235 15.1923 10.5705 15.1361 10.6047 15.0549C10.6296 14.9988 10.6415 14.8524 10.6405 14.6157L10.627 11.511C10.626 11.2961 10.6192 11.1653 10.6064 11.1187C10.584 11.0378 10.5397 10.9757 10.4766 10.9324C10.3883 10.8674 10.2655 10.8368 10.1114 10.8374L9.95417 10.8381L9.95361 10.7104L13.9444 10.693L13.9505 12.0881L13.8184 12.0887C13.7477 11.7465 13.6523 11.504 13.529 11.355C13.4057 11.2061 13.2323 11.0979 13.0056 11.0303C12.8733 10.9904 12.6279 10.9697 12.2662 10.9713L11.7757 10.9734L11.7662 10.9704Z" fill="white"/>
<path d="M18.0494 13.783L19.3284 10.6664L21.2688 10.6579L21.2693 10.7856L21.1152 10.7862C20.9737 10.7869 20.8637 10.8123 20.779 10.8593C20.7194 10.8907 20.6725 10.947 20.6382 11.0219C20.6133 11.078 20.6014 11.2214 20.6024 11.458L20.616 14.569C20.617 14.8088 20.6303 14.9613 20.6557 15.0204C20.6811 15.0794 20.7348 15.1321 20.8136 15.1785C20.8924 15.2249 20.9994 15.2462 21.1347 15.2456L21.2888 15.2449L21.2893 15.3726L18.8018 15.3835L18.8012 15.2558L18.9553 15.2551C19.0968 15.2545 19.2068 15.2291 19.2915 15.1789C19.3511 15.1475 19.3949 15.0913 19.4323 15.0101C19.4572 14.954 19.4691 14.8075 19.4681 14.5709L19.4528 11.0738L17.6445 15.3885L17.5596 15.3889L15.6855 11.1245L15.7 14.4472C15.701 14.6807 15.7079 14.8208 15.7207 14.8768C15.7527 14.9919 15.8191 15.0882 15.9201 15.1594C16.021 15.2305 16.1816 15.2672 16.4017 15.2662L16.4023 15.3939L14.7701 15.401L14.7695 15.2734L14.8199 15.2731C14.9268 15.2727 15.0242 15.2567 15.1153 15.222C15.2063 15.1843 15.2753 15.1373 15.3222 15.0779C15.3691 15.0185 15.4033 14.9312 15.4311 14.822C15.4342 14.7971 15.4368 14.6788 15.4359 14.467L15.4229 11.4806C15.4218 11.2408 15.4086 11.0914 15.3832 11.0324C15.3577 10.9733 15.304 10.9206 15.2252 10.8773C15.1464 10.831 15.0394 10.8096 14.9042 10.8102L14.7532 10.8109L14.7527 10.6832L16.6993 10.6747L18.0526 13.7798L18.0494 13.783Z" fill="white"/>
<path d="M24.1806 10.5798C24.9383 10.5484 25.5588 10.7637 26.0326 11.2288C26.5095 11.6938 26.7479 12.2751 26.7509 12.9758C26.7536 13.5737 26.5797 14.1007 26.2264 14.5569C25.7604 15.1631 25.1013 15.468 24.2459 15.4718C23.3905 15.4755 22.7226 15.1919 22.2515 14.6179C21.8784 14.1648 21.6905 13.6269 21.6878 13.001C21.6847 12.3003 21.9243 11.7138 22.4034 11.2446C22.8826 10.7754 23.4728 10.5517 24.1774 10.5767L24.1806 10.5798ZM24.2224 10.8038C23.7853 10.8057 23.456 11.0282 23.2315 11.4683C23.0476 11.8304 22.9586 12.3508 22.9616 13.0297C22.9651 13.8362 23.1124 14.4304 23.3971 14.8122C23.5964 15.0791 23.8769 15.2149 24.2354 15.2133C24.4775 15.2123 24.6785 15.1522 24.8384 15.0363C25.0453 14.8859 25.2047 14.6486 25.3165 14.3211C25.4282 13.9936 25.4861 13.5699 25.4839 13.0436C25.4811 12.4208 25.4193 11.9539 25.3016 11.643C25.1839 11.3321 25.032 11.1148 24.8491 10.9879C24.6661 10.861 24.4583 10.7997 24.2193 10.8007L24.2224 10.8038Z" fill="white"/>
<path d="M19.6829 12.7232C19.3286 12.9614 19.0306 13.1527 18.8236 13.275C17.619 13.9716 11.7492 17.9771 10.4135 18.8985C9.07784 19.8199 5.37582 23.3114 4.28582 24.3251L4.24988 24.7363C7.76468 21.582 8.86827 20.8017 10.2663 19.7399C11.9965 18.4245 15.5773 15.9892 16.7941 15.2084C17.9576 14.4622 19.0082 13.7756 19.9489 13.1487C19.9331 13.1238 19.9173 13.099 19.9014 13.071C19.8286 12.9561 19.7557 12.8412 19.6829 12.7232Z" fill="#ADADAC"/>
</g>
<defs>
<clipPath id="clip0_56_21413">
<rect width="30.8511" height="25" fill="white" transform="translate(0.54541 0.910767) rotate(-0.25)"/>
</clipPath>
</defs>
</svg>
