<svg width="58" height="47" viewBox="0 0 58 47" fill="none" xmlns="http://www.w3.org/2000/svg">
<g clip-path="url(#clip0_56_19857)">
<path d="M26.9601 47C40.067 47 50.6923 36.4787 50.6923 23.5C50.6923 10.5213 40.067 0 26.9601 0C13.8533 0 3.22803 10.5213 3.22803 23.5C3.22803 36.4787 13.8533 47 26.9601 47Z" fill="#0B3D91"/>
<path d="M25.559 4.77727C25.706 4.77727 25.8251 4.65932 25.8251 4.51382C25.8251 4.36832 25.706 4.25037 25.559 4.25037C25.4121 4.25037 25.293 4.36832 25.293 4.51382C25.293 4.65932 25.4121 4.77727 25.559 4.77727Z" fill="white"/>
<path d="M28.2905 5.12856C28.4374 5.12856 28.5565 5.01061 28.5565 4.86511C28.5565 4.71961 28.4374 4.60165 28.2905 4.60165C28.1435 4.60165 28.0244 4.71961 28.0244 4.86511C28.0244 5.01061 28.1435 5.12856 28.2905 5.12856Z" fill="white"/>
<path d="M31.8735 9.90584C32.0204 9.90584 32.1395 9.78789 32.1395 9.64239C32.1395 9.49689 32.0204 9.37894 31.8735 9.37894C31.7265 9.37894 31.6074 9.49689 31.6074 9.64239C31.6074 9.78789 31.7265 9.90584 31.8735 9.90584Z" fill="white"/>
<path d="M12.2206 34.4948C12.3676 34.4948 12.4867 34.3768 12.4867 34.2313C12.4867 34.0858 12.3676 33.9679 12.2206 33.9679C12.0737 33.9679 11.9546 34.0858 11.9546 34.2313C11.9546 34.3768 12.0737 34.4948 12.2206 34.4948Z" fill="white"/>
<path d="M12.9125 36.6024C13.0595 36.6024 13.1786 36.4845 13.1786 36.339C13.1786 36.1935 13.0595 36.0755 12.9125 36.0755C12.7656 36.0755 12.6465 36.1935 12.6465 36.339C12.6465 36.4845 12.7656 36.6024 12.9125 36.6024Z" fill="white"/>
<path d="M9.61362 34.7465C9.72464 34.7465 9.81464 34.6574 9.81464 34.5475C9.81464 34.4375 9.72464 34.3484 9.61362 34.3484C9.5026 34.3484 9.4126 34.4375 9.4126 34.5475C9.4126 34.6574 9.5026 34.7465 9.61362 34.7465Z" fill="white"/>
<path d="M20.433 38.8857C20.544 38.8857 20.634 38.7965 20.634 38.6866C20.634 38.5767 20.544 38.4875 20.433 38.4875C20.3219 38.4875 20.2319 38.5767 20.2319 38.6866C20.2319 38.7965 20.3219 38.8857 20.433 38.8857Z" fill="white"/>
<path d="M37.4012 35.3964C37.5122 35.3964 37.6022 35.3072 37.6022 35.1973C37.6022 35.0874 37.5122 34.9983 37.4012 34.9983C37.2902 34.9983 37.2002 35.0874 37.2002 35.1973C37.2002 35.3072 37.2902 35.3964 37.4012 35.3964Z" fill="white"/>
<path d="M42.3324 30.0922C42.4434 30.0922 42.5334 30.0031 42.5334 29.8931C42.5334 29.7832 42.4434 29.6941 42.3324 29.6941C42.2213 29.6941 42.1313 29.7832 42.1313 29.8931C42.1313 30.0031 42.2213 30.0922 42.3324 30.0922Z" fill="white"/>
<path d="M18.1629 11.3812C18.274 11.3812 18.364 11.2921 18.364 11.1821C18.364 11.0722 18.274 10.9831 18.1629 10.9831C18.0519 10.9831 17.9619 11.0722 17.9619 11.1821C17.9619 11.2921 18.0519 11.3812 18.1629 11.3812Z" fill="white"/>
<path d="M23.5902 7.43525C23.7012 7.43525 23.7912 7.34613 23.7912 7.23619C23.7912 7.12626 23.7012 7.03714 23.5902 7.03714C23.4792 7.03714 23.3892 7.12626 23.3892 7.23619C23.3892 7.34613 23.4792 7.43525 23.5902 7.43525Z" fill="white"/>
<path d="M22.9989 7.04883C23.1099 7.04883 23.1999 6.95971 23.1999 6.84978C23.1999 6.73985 23.1099 6.65073 22.9989 6.65073C22.8879 6.65073 22.7979 6.73985 22.7979 6.84978C22.7979 6.95971 22.8879 7.04883 22.9989 7.04883Z" fill="white"/>
<path d="M22.4666 6.66245C22.5777 6.66245 22.6677 6.57333 22.6677 6.4634C22.6677 6.35346 22.5777 6.26434 22.4666 6.26434C22.3556 6.26434 22.2656 6.35346 22.2656 6.4634C22.2656 6.57333 22.3556 6.66245 22.4666 6.66245Z" fill="white"/>
<path d="M19.014 12.3998C19.125 12.3998 19.215 12.3107 19.215 12.2008C19.215 12.0909 19.125 12.0017 19.014 12.0017C18.903 12.0017 18.813 12.0909 18.813 12.2008C18.813 12.3107 18.903 12.3998 19.014 12.3998Z" fill="white"/>
<path d="M27.0077 2.13105C27.1187 2.13105 27.2087 2.04193 27.2087 1.93199C27.2087 1.82206 27.1187 1.73294 27.0077 1.73294C26.8966 1.73294 26.8066 1.82206 26.8066 1.93199C26.8066 2.04193 26.8966 2.13105 27.0077 2.13105Z" fill="white"/>
<path d="M28.3202 7.82163C28.4312 7.82163 28.5212 7.73251 28.5212 7.62258C28.5212 7.51264 28.4312 7.42352 28.3202 7.42352C28.2091 7.42352 28.1191 7.51264 28.1191 7.62258C28.1191 7.73251 28.2091 7.82163 28.3202 7.82163Z" fill="white"/>
<path d="M26.2508 6.70926C26.3618 6.70926 26.4518 6.62014 26.4518 6.51021C26.4518 6.40028 26.3618 6.31116 26.2508 6.31116C26.1398 6.31116 26.0498 6.40028 26.0498 6.51021C26.0498 6.62014 26.1398 6.70926 26.2508 6.70926Z" fill="white"/>
<path d="M22.7035 8.21973C22.8145 8.21973 22.9045 8.13061 22.9045 8.02068C22.9045 7.91074 22.8145 7.82162 22.7035 7.82162C22.5924 7.82162 22.5024 7.91074 22.5024 8.02068C22.5024 8.13061 22.5924 8.21973 22.7035 8.21973Z" fill="white"/>
<path d="M38.3475 40.6069C38.4585 40.6069 38.5485 40.5178 38.5485 40.4078C38.5485 40.2979 38.4585 40.2088 38.3475 40.2088C38.2365 40.2088 38.1465 40.2979 38.1465 40.4078C38.1465 40.5178 38.2365 40.6069 38.3475 40.6069Z" fill="white"/>
<path d="M11.8836 35.7652C11.9947 35.7652 12.0847 35.6761 12.0847 35.5661C12.0847 35.4562 11.9947 35.3671 11.8836 35.3671C11.7726 35.3671 11.6826 35.4562 11.6826 35.5661C11.6826 35.6761 11.7726 35.7652 11.8836 35.7652Z" fill="white"/>
<path d="M25.7542 38.3119C25.8653 38.3119 25.9553 38.2228 25.9553 38.1129C25.9553 38.0029 25.8653 37.9138 25.7542 37.9138C25.6432 37.9138 25.5532 38.0029 25.5532 38.1129C25.5532 38.2228 25.6432 38.3119 25.7542 38.3119Z" fill="white"/>
<path d="M16.0106 35.6071C16.1216 35.6071 16.2116 35.518 16.2116 35.4081C16.2116 35.2981 16.1216 35.209 16.0106 35.209C15.8996 35.209 15.8096 35.2981 15.8096 35.4081C15.8096 35.518 15.8996 35.6071 16.0106 35.6071Z" fill="white"/>
<path d="M17.7372 38.3939C17.8482 38.3939 17.9382 38.3048 17.9382 38.1948C17.9382 38.0849 17.8482 37.9958 17.7372 37.9958C17.6261 37.9958 17.5361 38.0849 17.5361 38.1948C17.5361 38.3048 17.6261 38.3939 17.7372 38.3939Z" fill="white"/>
<path d="M30.4369 36.6375C30.5479 36.6375 30.6379 36.5484 30.6379 36.4385C30.6379 36.3285 30.5479 36.2394 30.4369 36.2394C30.3258 36.2394 30.2358 36.3285 30.2358 36.4385C30.2358 36.5484 30.3258 36.6375 30.4369 36.6375Z" fill="white"/>
<path d="M37.4369 32.7267C37.5479 32.7267 37.6379 32.6376 37.6379 32.5277C37.6379 32.4177 37.5479 32.3286 37.4369 32.3286C37.3258 32.3286 37.2358 32.4177 37.2358 32.5277C37.2358 32.6376 37.3258 32.7267 37.4369 32.7267Z" fill="white"/>
<path d="M42.7459 35.127C42.857 35.127 42.947 35.0379 42.947 34.928C42.947 34.8181 42.857 34.7289 42.7459 34.7289C42.6349 34.7289 42.5449 34.8181 42.5449 34.928C42.5449 35.0379 42.6349 35.127 42.7459 35.127Z" fill="white"/>
<path d="M44.5555 36.2745C44.6665 36.2745 44.7565 36.1854 44.7565 36.0755C44.7565 35.9656 44.6665 35.8764 44.5555 35.8764C44.4445 35.8764 44.3545 35.9656 44.3545 36.0755C44.3545 36.1854 44.4445 36.2745 44.5555 36.2745Z" fill="white"/>
<path d="M44.8509 33.1482C44.9619 33.1482 45.0519 33.0591 45.0519 32.9492C45.0519 32.8392 44.9619 32.7501 44.8509 32.7501C44.7399 32.7501 44.6499 32.8392 44.6499 32.9492C44.6499 33.0591 44.7399 33.1482 44.8509 33.1482Z" fill="white"/>
<path d="M18.4583 28.7222C18.5694 28.7222 18.6594 28.6331 18.6594 28.5232C18.6594 28.4132 18.5694 28.3241 18.4583 28.3241C18.3473 28.3241 18.2573 28.4132 18.2573 28.5232C18.2573 28.6331 18.3473 28.7222 18.4583 28.7222Z" fill="white"/>
<path d="M18.5351 33.318C18.682 33.318 18.8012 33.2001 18.8012 33.0546C18.8012 32.9091 18.682 32.7911 18.5351 32.7911C18.3882 32.7911 18.269 32.9091 18.269 33.0546C18.269 33.2001 18.3882 33.318 18.5351 33.318Z" fill="white"/>
<path d="M20.1313 36.6551C20.2782 36.6551 20.3973 36.5371 20.3973 36.3916C20.3973 36.2461 20.2782 36.1282 20.1313 36.1282C19.9844 36.1282 19.8652 36.2461 19.8652 36.3916C19.8652 36.5371 19.9844 36.6551 20.1313 36.6551Z" fill="white"/>
<path d="M39.2519 33.1775C39.3988 33.1775 39.5179 33.0596 39.5179 32.9141C39.5179 32.7686 39.3988 32.6506 39.2519 32.6506C39.105 32.6506 38.9858 32.7686 38.9858 32.9141C38.9858 33.0596 39.105 33.1775 39.2519 33.1775Z" fill="white"/>
<path d="M46.1337 32.7911C46.2807 32.7911 46.3998 32.6732 46.3998 32.5277C46.3998 32.3822 46.2807 32.2642 46.1337 32.2642C45.9868 32.2642 45.8677 32.3822 45.8677 32.5277C45.8677 32.6732 45.9868 32.7911 46.1337 32.7911Z" fill="white"/>
<path d="M42.7285 31.3509C42.8754 31.3509 42.9945 31.233 42.9945 31.0875C42.9945 30.942 42.8754 30.824 42.7285 30.824C42.5815 30.824 42.4624 30.942 42.4624 31.0875C42.4624 31.233 42.5815 31.3509 42.7285 31.3509Z" fill="white"/>
<path d="M39.2519 31.4914C39.3988 31.4914 39.5179 31.3735 39.5179 31.228C39.5179 31.0825 39.3988 30.9645 39.2519 30.9645C39.105 30.9645 38.9858 31.0825 38.9858 31.228C38.9858 31.3735 39.105 31.4914 39.2519 31.4914Z" fill="white"/>
<path d="M32.0806 4.34992L32.7427 4.28552L32.0806 4.25039C32.0628 4.12159 31.9564 4.02206 31.8263 4.01035L31.7613 3.3605L31.7258 4.01621C31.6076 4.04548 31.513 4.13915 31.5012 4.2621L30.8271 4.32064L31.5071 4.35577C31.5307 4.46701 31.6253 4.55482 31.7376 4.57824L31.7968 5.25151L31.8322 4.57824C31.9564 4.56068 32.051 4.46701 32.0747 4.34406L32.0806 4.34992Z" fill="white"/>
<path d="M20.918 11.6446L21.5801 11.5802L20.918 11.5451C20.9002 11.4163 20.7938 11.3168 20.6637 11.3051L20.5987 10.6552L20.5632 11.3109C20.445 11.3402 20.3504 11.4339 20.3386 11.5568L19.6646 11.6154L20.3445 11.6505C20.3681 11.7617 20.4627 11.8495 20.5751 11.873L20.6342 12.5462L20.6696 11.873C20.7938 11.8554 20.8884 11.7617 20.9121 11.6388L20.918 11.6446Z" fill="white"/>
<path d="M45.6489 30.9235L46.3111 30.8591L45.6489 30.824C45.6312 30.6952 45.5248 30.6015 45.3947 30.584L45.3297 29.9341L45.2942 30.5898C45.1759 30.6132 45.0813 30.7128 45.0695 30.8357L44.3955 30.8943L45.0754 30.9294C45.0991 31.0406 45.1937 31.1284 45.306 31.1518L45.3651 31.8251L45.4006 31.1518C45.5248 31.1343 45.6194 31.0406 45.643 30.9177L45.6489 30.9235Z" fill="white"/>
<path d="M18.6831 41.0108L19.3453 40.9464L18.6831 40.9113C18.6654 40.7825 18.5589 40.683 18.4289 40.6713L18.3638 40.0214L18.3284 40.6771C18.2101 40.7005 18.1155 40.8001 18.1037 40.923L17.4297 40.9816L18.1096 41.0167C18.1333 41.1279 18.2279 41.2216 18.3402 41.2392L18.3993 41.9124L18.4348 41.2392C18.5589 41.2216 18.6535 41.1279 18.6772 41.005L18.6831 41.0108Z" fill="white"/>
<path d="M43.5503 36.0931L44.2125 36.0287L43.5503 35.9935C43.5326 35.8647 43.4261 35.7652 43.2961 35.7535L43.231 35.1036L43.1955 35.7593C43.0773 35.7828 42.9827 35.8823 42.9709 36.0052L42.2969 36.0638L42.9768 36.0989C43.0004 36.2101 43.095 36.298 43.2074 36.3214L43.2665 36.9946L43.302 36.3214C43.4261 36.3038 43.5207 36.2101 43.5444 36.0872L43.5503 36.0931Z" fill="white"/>
<path d="M32.5888 17.868C29.8277 18.9276 27.1376 19.8761 24.8673 20.5786C20.2497 22.0071 7.62691 25.8828 0 30.7655L0.638532 31.0114C5.28563 28.412 8.30683 27.5982 11.2098 26.6907C14.367 25.7072 24.5717 23.3419 29.1951 22.054C30.756 21.6207 32.5829 21.047 34.5221 20.3561C34.0728 19.7356 33.5939 19.1091 33.0972 18.4886C32.9317 18.2778 32.7602 18.0729 32.5888 17.868ZM46.3291 11.6271C43.095 13.5005 38.0045 15.7662 33.0618 17.6865C33.18 17.827 33.2983 17.9734 33.4165 18.1197C33.9664 18.8106 34.4866 19.5014 34.9774 20.1981C38.8618 18.7813 43.1246 16.8786 46.5064 14.5777C44.8983 16.0882 39.5713 20.0283 36.3195 22.2296C36.485 22.4989 36.6506 22.7682 36.8043 23.0375C41.7233 19.7765 45.0343 17.3762 46.9617 15.7721C49.6222 13.5591 55.6883 8.60615 57.9941 1.96713C53.95 7.06056 49.167 9.9761 46.3231 11.6271H46.3291ZM35.9588 22.4696C35.2907 22.9146 34.7291 23.2717 34.3388 23.5C32.0685 24.7997 21.0006 32.2818 18.482 34.003C15.9633 35.7242 8.97492 42.2579 6.91743 44.1547L6.84648 44.9275C13.4801 39.0262 15.5613 37.5684 18.1982 35.5837C21.4618 33.1248 28.2137 28.5759 30.5076 27.1181C32.7011 25.7247 34.6818 24.4426 36.4555 23.2717C36.4259 23.2249 36.3963 23.178 36.3668 23.1253C36.2308 22.9087 36.0948 22.6921 35.9588 22.4696Z" fill="#FC3D21"/>
<path d="M23.9094 29.3194C23.3891 28.6696 22.6619 27.7914 22.1179 27.1181C21.3907 26.2107 20.7167 25.2974 20.1018 24.384C19.9008 24.4309 19.6998 24.4836 19.4988 24.5363C20.2437 25.6837 21.0655 26.8312 21.9701 27.9553C22.6264 28.7749 23.2235 29.4365 23.531 29.8463C23.5901 29.9283 23.7143 30.1156 23.8798 30.3556C24.069 30.2268 24.2641 30.0981 24.4592 29.9634C24.27 29.7585 24.0867 29.5477 23.9035 29.3194H23.9094ZM27.7287 32.7501C27.2971 32.3462 26.2566 31.6729 25.1687 30.6659C24.9322 30.8299 24.6898 30.9938 24.4474 31.1577C25.151 32.1354 26.1028 33.3356 26.8478 33.6869C27.9711 34.2138 28.2786 33.2653 27.7287 32.7501ZM33.4164 18.1197C27.2144 10.3859 19.6347 6.1414 16.3711 8.71153C13.8347 10.7079 14.8753 16.5449 18.3754 22.6687C18.5587 22.6101 18.7361 22.5457 18.9134 22.4872C15.3838 16.5156 14.4201 10.9655 16.8087 9.08036C19.818 6.71514 27.0784 10.9772 33.103 18.4827C34.3505 20.0341 35.4443 21.5973 36.3726 23.1195C39.9259 28.9447 41.0197 34.2138 38.5601 36.3624C37.8093 37.0181 35.5153 37.2815 32.5059 35.9409C32.4645 35.9935 32.5295 36.134 32.5828 36.1692C35.1783 37.2054 37.6674 37.5977 38.9208 36.6083C41.9361 34.2313 39.6184 25.8477 33.4164 18.1197Z" fill="white"/>
<path d="M11.0031 24.343L13.4331 18.4944H17.081V18.7344H16.7913C16.5252 18.7344 16.3183 18.7813 16.1587 18.8691C16.0463 18.9276 15.9576 19.033 15.8926 19.1735C15.8453 19.2789 15.8217 19.5482 15.8217 19.9931V25.8418C15.8217 26.2926 15.8453 26.5795 15.8926 26.6907C15.9399 26.8019 16.0404 26.9015 16.1882 26.9893C16.336 27.0771 16.537 27.1181 16.7913 27.1181H17.081V27.3581H12.4043V27.1181H12.694C12.9601 27.1181 13.167 27.0712 13.3266 26.9776C13.439 26.919 13.5277 26.8136 13.5927 26.6614C13.64 26.556 13.6636 26.2809 13.6636 25.8359V19.2613L10.2286 27.3581H10.0689L6.58067 19.3257V25.5725C6.58067 26.0116 6.5925 26.275 6.61614 26.3804C6.67527 26.597 6.79943 26.7785 6.98862 26.9132C7.17782 27.0478 7.47935 27.1181 7.89321 27.1181V27.3581H4.82471V27.1181H4.9193C5.12032 27.1181 5.30361 27.0888 5.47506 27.0244C5.64652 26.9541 5.77659 26.8663 5.86528 26.7551C5.95396 26.6439 6.019 26.4799 6.07221 26.275C6.07812 26.2282 6.08403 26.0057 6.08403 25.6076V19.9931C6.08403 19.5423 6.06039 19.2613 6.01309 19.1501C5.96579 19.0388 5.86528 18.9393 5.71747 18.8574C5.56966 18.7695 5.36864 18.7286 5.11441 18.7286H4.83062V18.4885H8.49035L11.009 24.3372L11.0031 24.343Z" fill="white"/>
<path d="M21.0124 19.0037V22.616H21.1898C21.7574 22.616 22.1713 22.4403 22.4255 22.0832C22.6797 21.7261 22.8453 21.2109 22.9162 20.52H23.1645V25.1627H22.9162C22.863 24.6592 22.7507 24.2435 22.5851 23.9215C22.4196 23.5995 22.2186 23.3829 21.9939 23.2717C21.7692 23.1604 21.444 23.1019 21.0183 23.1019V25.6018C21.0183 26.0877 21.042 26.3921 21.0834 26.4975C21.1248 26.6087 21.2016 26.6966 21.3199 26.7668C21.4322 26.8371 21.6214 26.8722 21.8756 26.8722H22.4137C23.2532 26.8722 23.9213 26.679 24.4239 26.2984C24.9264 25.9121 25.293 25.3325 25.5117 24.548H25.7541L25.3521 27.3698H17.6069V27.1298H17.9026C18.1627 27.1298 18.3696 27.083 18.5293 26.9893C18.6416 26.9307 18.7303 26.8254 18.7953 26.6731C18.8426 26.5678 18.8663 26.2926 18.8663 25.8477V20.0107C18.8663 19.6067 18.8544 19.3609 18.8308 19.273C18.7894 19.1208 18.7066 19.0037 18.5884 18.9218C18.4228 18.7988 18.1923 18.7403 17.9026 18.7403H17.6069V18.5002H25.1097V21.1231H24.8614C24.7313 20.4791 24.5539 20.0224 24.3233 19.7414C24.0928 19.4604 23.7676 19.2555 23.3419 19.1267C23.0936 19.0506 22.6324 19.0096 21.9525 19.0096H21.0302L21.0124 19.0037Z" fill="white"/>
<path d="M32.8019 24.343L35.2319 18.4944H38.8798V18.7344H38.5901C38.324 18.7344 38.1171 18.7813 37.9575 18.8691C37.8451 18.9276 37.7565 19.033 37.6914 19.1735C37.6441 19.2789 37.6205 19.5482 37.6205 19.9931V25.8418C37.6205 26.2926 37.6441 26.5795 37.6914 26.6907C37.7387 26.8019 37.8392 26.9015 37.987 26.9893C38.1349 27.0771 38.3359 27.1181 38.5901 27.1181H38.8798V27.3581H34.2031V27.1181H34.4929C34.7589 27.1181 34.9658 27.0712 35.1255 26.9776C35.2378 26.919 35.3206 26.8136 35.3915 26.6614C35.4388 26.556 35.4625 26.2809 35.4625 25.8359V19.2613L32.0274 27.3581H31.8678L28.3795 19.3257V25.5725C28.3795 26.0116 28.3913 26.275 28.415 26.3804C28.4741 26.597 28.5983 26.7785 28.7874 26.9132C28.9766 27.0478 29.2782 27.1181 29.692 27.1181V27.3581H26.6235V27.1181H26.7181C26.9192 27.1181 27.1024 27.0888 27.2739 27.0244C27.4454 26.9541 27.5754 26.8663 27.6641 26.7551C27.7528 26.6439 27.8178 26.4799 27.871 26.275C27.877 26.2282 27.8829 26.0057 27.8829 25.6076V19.9931C27.8829 19.5423 27.8592 19.2613 27.8119 19.1501C27.7646 19.0388 27.6641 18.9393 27.5163 18.8574C27.3685 18.7695 27.1675 18.7286 26.9132 18.7286H26.6294V18.4885H30.2892L32.8078 24.3372L32.8019 24.343Z" fill="white"/>
<path d="M44.3547 18.3714C45.7795 18.3188 46.9443 18.7286 47.8311 19.6067C48.7239 20.4849 49.1673 21.5797 49.1673 22.897C49.1673 24.021 48.8362 25.0105 48.1681 25.8652C47.2872 27.001 46.0456 27.5689 44.4374 27.5689C42.8293 27.5689 41.5759 27.0303 40.6949 25.9472C39.9973 25.0924 39.6484 24.0796 39.6484 22.9028C39.6484 21.5856 40.1037 20.4849 41.0083 19.6067C41.9129 18.7286 43.0244 18.3129 44.3487 18.3656L44.3547 18.3714ZM44.4315 18.793C43.6097 18.793 42.9889 19.2086 42.5632 20.0341C42.2144 20.7133 42.0429 21.691 42.0429 22.9672C42.0429 24.4836 42.3149 25.6018 42.847 26.3219C43.2195 26.8254 43.7457 27.083 44.4197 27.083C44.8749 27.083 45.2533 26.9717 45.5549 26.7551C45.9451 26.4741 46.2466 26.0291 46.4594 25.4144C46.6723 24.7997 46.7846 24.0035 46.7846 23.0141C46.7846 21.8432 46.6723 20.965 46.4535 20.3795C46.2348 19.7941 45.951 19.3843 45.6081 19.1442C45.2652 18.9042 44.8749 18.7871 44.4256 18.7871L44.4315 18.793Z" fill="white"/>
<path d="M35.8819 22.3642C35.2138 22.8092 34.6521 23.1663 34.2619 23.3946C31.9916 24.6943 20.9237 32.1764 18.405 33.8976C15.8864 35.6188 8.89797 42.1525 6.84048 44.0493L6.76953 44.8221C13.4032 38.9208 15.4843 37.463 18.1212 35.4783C21.3848 33.0194 28.1367 28.4705 30.4307 27.0127C32.6242 25.6193 34.6048 24.3372 36.3785 23.1663C36.3489 23.1195 36.3194 23.0726 36.2898 23.0199C36.1538 22.8033 36.0179 22.5867 35.8819 22.3642Z" fill="#FC3D21"/>
</g>
<defs>
<clipPath id="clip0_56_19857">
<rect width="58" height="47" fill="white"/>
</clipPath>
</defs>
</svg>
