<svg width="100" height="22" viewBox="0 0 100 22" fill="none" xmlns="http://www.w3.org/2000/svg">
<path d="M30.6958 20.9355H26.2163C25.8618 19.5605 25.5127 18.1855 25.1689 16.8105C24.3311 13.6201 23.5952 11.0796 22.9614 9.18896C22.0591 6.46045 21.3984 5.12305 20.9795 5.17676C20.6895 5.24121 20.4907 5.354 20.3833 5.51514C20.2866 5.66553 20.2383 5.88037 20.2383 6.15967V16.9717C20.2383 18.2178 19.7227 19.249 18.6914 20.0654C17.7246 20.8281 16.5698 21.2095 15.2271 21.2095C14.0669 21.2095 13.0249 20.9033 12.1011 20.291C11.0698 19.6035 10.3394 18.6206 9.90967 17.3423C9.82373 17.0845 9.43164 15.688 8.7334 13.1528C8.09961 10.854 7.54639 9.05469 7.07373 7.75488C6.41846 5.98242 5.88672 5.12305 5.47852 5.17676C5.20996 5.24121 5.02197 5.354 4.91455 5.51514C4.80713 5.66553 4.75342 5.88037 4.75342 6.15967V20.9355H0.402832V5.14453C0.402832 3.70508 0.945312 2.60938 2.03027 1.85742C2.96484 1.21289 4.1626 0.890625 5.62354 0.890625C7.57861 0.890625 9.13086 1.87354 10.2803 3.83936C11.0537 5.1499 11.7896 7.27148 12.4878 10.2041C13.2612 13.4268 13.8252 15.4248 14.1797 16.1982C14.2871 16.4453 14.4375 16.6387 14.6309 16.7783C14.835 16.918 15.0444 16.9878 15.2593 16.9878C15.4526 16.9878 15.603 16.9233 15.7104 16.7944C15.8286 16.6655 15.8877 16.4668 15.8877 16.1982V5.14453C15.8877 3.70508 16.4302 2.60938 17.5151 1.85742C18.4497 1.21289 19.6475 0.890625 21.1084 0.890625C22.3008 0.890625 23.3535 1.30957 24.2666 2.14746C25.2441 3.0498 25.9854 4.38721 26.4902 6.15967L30.6958 20.9355Z" fill="white"/>
<path d="M47.1152 20.9355H35.9165C34.2407 20.9355 32.9141 20.3071 31.9365 19.0503C31.0557 17.9224 30.6152 16.5366 30.6152 14.8931C30.6152 13.4106 30.9858 12.127 31.7271 11.042C30.9858 9.95703 30.6152 8.68408 30.6152 7.22314C30.6152 5.61182 31.0557 4.24219 31.9365 3.11426C32.9141 1.86816 34.2407 1.24512 35.9165 1.24512H47.1152V5.40234H36.6416C36.1689 5.40234 35.793 5.58496 35.5137 5.9502C35.2451 6.30469 35.1108 6.72363 35.1108 7.20703C35.1108 7.67969 35.2397 8.08252 35.4976 8.41553C35.7661 8.74854 36.1475 8.91504 36.6416 8.91504H47.1152V13.1689H36.0454C35.7554 13.2979 35.5244 13.5234 35.3525 13.8457C35.1914 14.168 35.1108 14.5225 35.1108 14.9092C35.1108 15.3926 35.2397 15.8115 35.4976 16.166C35.7661 16.5205 36.1475 16.6978 36.6416 16.6978H47.1152V20.9355Z" fill="white"/>
<path d="M79.229 20.9355H74.7495C74.395 19.5605 74.0459 18.1855 73.7021 16.8105C72.8643 13.6201 72.1284 11.0796 71.4946 9.18896C70.5923 6.46045 69.9316 5.12305 69.5127 5.17676C69.2227 5.24121 69.0239 5.354 68.9165 5.51514C68.8198 5.66553 68.7715 5.88037 68.7715 6.15967V16.9717C68.7715 18.2178 68.2559 19.249 67.2246 20.0654C66.2578 20.8281 65.103 21.2095 63.7603 21.2095C62.6001 21.2095 61.5581 20.9033 60.6343 20.291C59.603 19.6035 58.8726 18.6206 58.4429 17.3423C58.3569 17.0845 57.9648 15.688 57.2666 13.1528C56.6328 10.854 56.0796 9.05469 55.6069 7.75488C54.9517 5.98242 54.4199 5.12305 54.0117 5.17676C53.7432 5.24121 53.5552 5.354 53.4478 5.51514C53.3403 5.66553 53.2866 5.88037 53.2866 6.15967V20.9355H48.936V5.14453C48.936 3.70508 49.4785 2.60938 50.5635 1.85742C51.498 1.21289 52.6958 0.890625 54.1567 0.890625C56.1118 0.890625 57.6641 1.87354 58.8135 3.83936C59.5869 5.1499 60.3228 7.27148 61.021 10.2041C61.7944 13.4268 62.3584 15.4248 62.7129 16.1982C62.8203 16.4453 62.9707 16.6387 63.1641 16.7783C63.3682 16.918 63.5776 16.9878 63.7925 16.9878C63.9858 16.9878 64.1362 16.9233 64.2437 16.7944C64.3618 16.6655 64.4209 16.4668 64.4209 16.1982V5.14453C64.4209 3.70508 64.9634 2.60938 66.0483 1.85742C66.9829 1.21289 68.1807 0.890625 69.6416 0.890625C70.834 0.890625 71.8867 1.30957 72.7998 2.14746C73.7773 3.0498 74.5186 4.38721 75.0234 6.15967L79.229 20.9355Z" fill="white"/>
<path d="M91.9263 20.9355H85.4971C83.1875 20.9355 81.3667 19.9312 80.0347 17.9224C78.8315 16.1177 78.23 13.894 78.23 11.2515C78.23 8.56592 78.8423 6.27783 80.0669 4.38721C81.4204 2.29248 83.2305 1.24512 85.4971 1.24512H91.9263C94.1929 1.24512 96.0029 2.29248 97.3564 4.38721C98.5811 6.27783 99.1934 8.57129 99.1934 11.2676C99.1934 13.9102 98.5972 16.1284 97.4048 17.9224C96.0728 19.9312 94.2466 20.9355 91.9263 20.9355ZM91.2012 16.6655C92.2324 16.6655 93.0596 16.064 93.6826 14.8608C94.252 13.7651 94.5366 12.4438 94.5366 10.897C94.5366 9.39307 94.2627 8.13086 93.7148 7.11035C93.1025 5.97168 92.2646 5.40234 91.2012 5.40234H86.2222C85.1587 5.40234 84.3208 5.97168 83.7085 7.11035C83.1606 8.13086 82.8867 9.39307 82.8867 10.897C82.8867 12.4546 83.166 13.7759 83.7246 14.8608C84.3477 16.064 85.1802 16.6655 86.2222 16.6655H91.2012Z" fill="white"/>
</svg>
