<svg width="132" height="47" viewBox="0 0 132 47" fill="none" xmlns="http://www.w3.org/2000/svg">
<g clip-path="url(#clip0_77_21474)">
<path d="M131.729 6.15539C131.393 6.28301 131.049 6.39241 130.722 6.54029C128.386 7.59574 125.815 7.66766 123.378 8.30073C120.867 8.95304 118.33 9.50609 115.82 10.1645C112.136 11.1308 108.453 12.1072 104.793 13.1617C101.848 14.0105 98.9346 14.9717 96.0125 15.9016C92.9932 16.8618 89.9618 17.7876 86.9719 18.833C82.8352 20.2794 78.7197 21.7907 74.6175 23.3353C71.4312 24.5346 68.252 25.7633 65.1214 27.1003C62.7043 28.1325 60.3683 29.351 57.9958 30.4885C56.8116 31.0567 55.6415 31.6594 54.4411 32.1912C51.7447 33.3864 49.3317 35.0628 46.8459 36.6166C45.4197 37.508 43.9987 38.4064 42.5847 39.316C42.1889 39.5702 41.8235 39.8721 41.45 40.1587C41.1828 40.3644 40.9389 40.6024 40.6616 40.7918C39.8933 41.3175 39.3508 41.3256 38.8275 40.8496C38.0512 40.1425 37.9227 39.4335 38.3964 38.5928C39.7526 36.1851 41.1049 33.7744 42.449 31.3586C42.5725 31.1358 42.6292 30.8754 42.7881 30.4389C42.3478 30.5148 42.0766 30.5695 41.8043 30.607C41.112 30.7032 40.7081 30.3578 40.6848 29.6579C40.6606 28.9307 41.1049 28.3016 41.8681 28.0909C42.3195 27.9664 42.7952 27.9228 43.2638 27.8681C43.9227 27.7911 44.4642 27.4923 44.6647 26.8653C44.9936 25.8403 45.2851 24.7939 45.4774 23.7365C45.6434 22.8238 45.2173 22.4632 44.3175 22.679C43.8327 22.7955 43.3731 23.0315 42.9146 23.2411C42.4855 23.4366 42.0857 23.7 41.6504 23.8783C40.9328 24.172 40.3883 23.9958 39.9693 23.3921C39.5735 22.8218 39.5603 22.1026 40.1504 21.663C40.951 21.0664 41.8276 20.5022 42.7598 20.171C43.6565 19.8519 44.6707 19.7051 45.6242 19.7375C47.0331 19.7851 47.7791 20.5772 48.1374 21.9487C48.3955 22.9332 48.3388 23.8833 48.0179 24.8365C47.8155 25.4371 47.6333 26.0449 47.3894 26.8157C47.8621 26.7691 48.1779 26.7377 48.4947 26.7083C48.8266 26.6769 49.1586 26.7468 49.1961 27.1125C49.2234 27.3748 49.1424 27.7233 48.9734 27.9117C48.7912 28.1163 48.4613 28.25 48.1779 28.2915C46.8985 28.4779 46.1475 29.1829 45.7639 30.4186C45.5584 31.0821 45.1191 31.6716 44.8114 32.3067C44.3478 33.2629 43.9065 34.2302 43.4561 35.1925L43.608 35.3555C43.8367 35.2755 44.0857 35.2289 44.2912 35.1084C45.0169 34.684 45.7173 34.215 46.446 33.7977C47.8499 32.9934 49.2669 32.2135 50.6789 31.4224C50.767 31.3728 50.8479 31.3009 50.9421 31.2725C53.2913 30.5827 55.2953 29.1484 57.5332 28.2125C59.5231 27.3809 61.4614 26.4217 63.4625 25.6215C66.7145 24.3199 70 23.0993 73.2723 21.8494C74.91 21.2234 76.5416 20.5812 78.1944 19.9968C79.4626 19.5481 80.7633 19.1905 82.0426 18.7702C82.6499 18.5706 83.2441 18.3295 83.8372 18.0895C85.3058 17.4949 86.7927 16.9874 88.3443 16.6208C89.7148 16.2976 91.0144 15.6848 92.3667 15.2665C94.1349 14.7185 95.9214 14.2283 97.7038 13.7279C100.333 12.9895 102.961 12.246 105.599 11.54C108.138 10.8604 110.685 10.207 113.236 9.57598C115.951 8.90442 118.671 8.24907 121.397 7.6312C123.271 7.20679 125.149 6.78238 127.048 6.50788C128.077 6.35898 129.1 6.28504 130.104 5.95888C130.583 5.80391 131.155 5.93255 131.684 5.93255L131.729 6.15843V6.15539Z" fill="#062284"/>
<path d="M4.36366 39.779C4.52459 39.2776 4.68148 38.7752 4.84848 38.2759C5.38392 36.6805 5.92441 35.0872 6.46186 33.4929C6.59041 33.11 6.69162 32.716 6.8475 32.3443C7.11774 31.6991 7.51653 31.1683 8.26553 31.0326C9.04186 30.8928 9.55502 31.1754 9.88802 31.8935C10.5105 33.2397 10.6097 34.6892 10.7615 36.1326C10.8567 37.0381 10.9761 37.9406 11.1016 38.8421C11.1218 38.992 11.2251 39.1308 11.3091 39.3151C11.7716 39.1115 11.7929 38.7104 11.888 38.3822C12.1593 37.4422 12.3607 36.481 12.6603 35.5511C13.2089 33.8535 13.7909 32.166 14.3931 30.4856C15.0419 28.6775 15.6846 26.8644 16.4144 25.0878C16.9893 23.6869 17.6806 22.3317 18.3416 20.9673C18.6503 20.3291 19.1948 19.9159 19.8537 19.7001C20.0683 19.6302 20.4054 19.6859 20.5784 19.8227C20.706 19.923 20.6898 20.2491 20.6746 20.471C20.6635 20.628 20.5552 20.7829 20.4742 20.9298C18.9883 23.6302 17.8375 26.4805 16.9478 29.418C16.2262 31.8003 15.7616 34.2597 15.1138 36.6653C14.6421 38.4197 14.0794 40.1518 13.5136 41.8788C13.2494 42.6861 12.7433 43.3526 12.1522 43.9816C11.4538 44.7251 10.2008 44.6045 9.72506 43.9522C9.31817 43.3941 8.90218 42.7641 8.76048 42.1077C8.45683 40.6957 8.3293 39.2462 8.12383 37.813C8.09751 37.6306 8.03881 37.4524 7.96391 37.1434C7.49831 37.6124 7.37078 38.0865 7.2392 38.5666C6.71693 40.484 6.19972 42.4035 5.65315 44.3148C5.40922 45.1657 5.01751 45.9476 4.33026 46.5483C3.63693 47.154 3.05393 47.1419 2.36768 46.523C1.8525 46.058 1.7027 45.4614 1.62678 44.8051C1.21079 41.193 0.785681 37.582 0.347416 33.973C0.282638 33.4402 0.0903279 32.9226 0.0225133 32.3899C-0.0999578 31.4357 0.282638 30.83 1.03872 30.6861C1.92233 30.518 2.65514 30.9424 2.86364 31.8682C3.11466 32.9844 3.2766 34.1209 3.45575 35.2513C3.69159 36.7423 3.90515 38.2364 4.12884 39.7284L4.36366 39.7729V39.779Z" fill="#062284"/>
<path d="M28.617 31.9867C28.3063 31.8408 28.1231 31.7689 27.9541 31.6737C27.2435 31.2706 27.2202 30.598 27.9207 30.1949C28.3286 29.9599 28.7597 29.7573 29.198 29.5891C30.2051 29.2012 30.8974 28.5398 31.2243 27.4904C31.4045 26.913 31.6596 26.36 31.86 25.7887C31.9106 25.6459 31.8822 25.4747 31.9005 25.102C31.4905 25.3724 31.2132 25.5243 30.9713 25.7219C30.6585 25.9771 30.3974 26.2972 30.0745 26.5362C29.4106 27.0265 28.6322 26.9647 28.1565 26.4238C27.6747 25.8768 27.6838 25.0878 28.2101 24.4922C28.4308 24.242 28.6808 23.9969 28.9612 23.8206C30.0138 23.1582 31.0664 22.4907 32.1596 21.9001C32.5533 21.6874 33.0624 21.5993 33.5159 21.6084C34.4217 21.6256 35.0027 22.2425 35.0645 23.146C35.1373 24.2136 34.8954 25.2174 34.4491 26.1858C34.2608 26.593 34.1404 27.0315 33.9258 27.6322C34.4572 27.5937 34.779 27.5805 35.0979 27.5441C35.4319 27.5066 35.7659 27.4002 36.0959 27.4154C36.3287 27.4266 36.6677 27.5289 36.7578 27.698C36.9248 28.012 36.8094 28.3666 36.4704 28.5661C36.2993 28.6674 36.0989 28.7211 35.9086 28.7889C35.3064 29.0037 34.7052 29.2255 34.0979 29.4261C33.1849 29.7279 32.529 30.2941 32.114 31.1754C31.775 31.8935 31.365 32.5772 30.9652 33.3156C31.5148 33.5719 31.8003 33.2711 32.0887 33.0867C33.6849 32.0677 35.4542 31.5724 37.3074 31.3253C37.5068 31.2989 37.7113 31.304 37.9127 31.3091C38.357 31.3212 38.7022 31.4904 38.8277 31.9512C38.9461 32.3848 38.8327 32.7747 38.4704 33.031C38.1728 33.2417 37.8398 33.4301 37.4936 33.5405C34.7547 34.4116 32.3934 35.9735 30.0927 37.6245C29.198 38.2667 28.4156 39.071 27.6099 39.8307C27.0087 40.3979 26.3427 40.561 25.7982 40.2004C25.117 39.7486 24.7769 38.8704 25.1018 38.1786C25.3123 37.7289 25.6706 37.3511 25.9358 36.9226C26.3042 36.327 26.6504 35.7162 26.9986 35.1085C27.3498 34.4957 27.7041 33.8849 28.034 33.2599C28.2445 32.8608 28.4116 32.4395 28.616 31.9867H28.617Z" fill="#062284"/>
<path d="M22.2999 13.8963C21.8796 13.8963 21.648 13.8822 21.4198 13.9004C21.2022 13.9169 20.9871 13.9895 20.7695 13.9977C20.1769 14.02 19.6775 13.6802 19.5646 13.2002C19.4459 12.6954 19.7846 12.1156 20.3731 11.9276C21.1305 11.6851 21.8928 11.436 22.6725 11.2933C23.6367 11.1168 24.1535 10.5312 24.4485 9.66605C24.5458 9.38068 24.5936 9.06974 24.7345 8.80912C24.976 8.36127 25.3131 8.00332 25.8842 8.00002C26.4421 7.99672 26.7355 8.3522 26.9103 8.80912C27.1179 9.35099 27.4278 9.7279 27.9948 9.95471C28.5413 10.1733 28.683 10.6022 28.4251 11.1869C28.1852 11.7304 28.1828 12.1956 28.4028 12.7564C28.716 13.5565 28.1605 14.3383 27.3009 14.3895C26.9531 14.4101 26.5938 14.3342 26.2485 14.2608C25.9007 14.1866 25.5636 14.0604 25.2216 13.9589C24.7823 13.8286 24.4699 13.982 24.2796 14.3919C24.0826 14.8159 23.9005 15.2464 23.6928 15.6646C23.5716 15.9079 23.4381 16.1536 23.2667 16.3615C23.0318 16.6469 22.7227 16.8753 22.3337 16.7137C21.9373 16.5487 21.6241 16.2485 21.6299 15.7858C21.634 15.4666 21.7189 15.14 21.8195 14.834C21.9027 14.5808 22.0609 14.3524 22.2983 13.8963H22.2999Z" fill="#062284"/>
<path d="M24.8585 25.8212C24.5953 26.7905 24.3818 27.7761 24.0579 28.7242C23.2623 31.0498 22.3888 33.3491 21.6044 35.6778C21.3281 36.4982 21.2228 37.3775 21.0336 38.2283C20.9617 38.5534 20.9293 38.9049 20.7785 39.1906C20.3868 39.933 19.6955 39.9847 19.1479 39.3587C18.7471 38.8999 18.5487 38.3519 18.6469 37.7694C18.8422 36.6117 19.0153 35.4377 19.3645 34.3225C20.0872 32.0131 20.9455 29.7462 21.6884 27.4418C21.8797 26.8473 21.8575 26.1808 21.9141 25.5457C21.9637 24.9906 22.0852 24.4892 22.5994 24.158C23.5721 23.529 24.6186 24.0253 24.7209 25.179C24.7391 25.3795 24.7229 25.5831 24.7229 25.7847C24.7674 25.7959 24.8119 25.808 24.8575 25.8191L24.8585 25.8212Z" fill="#062284"/>
</g>
<defs>
<clipPath id="clip0_77_21474">
<rect width="131.729" height="47" fill="white"/>
</clipPath>
</defs>
</svg>
